PathFileType	4	(X/Y/Z)	Patient4_TMGait_0pt3_01_left_19.trc.trc
DataRate	CameraRate	NumFrames	NumMarkers	Units	OrigDataRate	OrigDataStartFrame	OrigNumFrames
52.044609665428	52.044609665428	5	33	mm	52.044609665428	1	       141
Frame#	Time	Sacral			L.Shoulder			Chest			R.Shoulder			Neck			R.ASIS			L.ASIS			R.Thigh.Superior			R.Thigh.Lateral			R.Thigh.Inferior			R.Patella			L.Thigh.Superior			L.Thigh.Lateral			L.Thigh.Inferior			L.Patella			L.Shank.Superior			L.Shank.Lateral			L.Shank.Inferior			R.Shank.Superior			R.Shank.Lateral			R.Shank.Inferior			R.Heel			R.Midfoot.Superior			R.Midfoot.Lateral			R.Toe			L.Heel			L.Midfoot.Lateral			L.Midfoot.Superior			L.Toe			L.Elbow			L.Wrist			R.Elbow			R.Wrist			
		X1	Y1	Z1	X2	Y2	Z2	X3	Y3	Z3	X4	Y4	Z4	X5	Y5	Z5	X6	Y6	Z6	X7	Y7	Z7	X8	Y8	Z8	X9	Y9	Z9	X10	Y10	Z10	X11	Y11	Z11	X12	Y12	Z12	X13	Y13	Z13	X14	Y14	Z14	X15	Y15	Z15	X16	Y16	Z16	X17	Y17	Z17	X18	Y18	Z18	X19	Y19	Z19	X20	Y20	Z20	X21	Y21	Z21	X22	Y22	Z22	X23	Y23	Z23	X24	Y24	Z24	X25	Y25	Z25	X26	Y26	Z26	X27	Y27	Z27	X28	Y28	Z28	X29	Y29	Z29	X30	Y30	Z30	X31	Y31	Z31	X32	Y32	Z32	X33	Y33	Z33	

1	35.470000000000	744.000248434802	995.450413901016	577.553928635399	940.741402179915	1433.175678583902	423.242719901829	1021.252108624594	1361.977803785461	595.486657439406	913.316983140602	1431.541396161759	757.102535672802	904.358016509197	1490.983936748870	579.844175165011	966.972300925363	939.963440312460	713.697689996624	973.072382697047	959.948309474830	440.428025476114	1021.499759699297	740.335698397094	678.254554485693	940.794703568277	622.859306467084	722.734055017443	1027.516066298881	578.377798058834	647.384667697526	1031.596299039724	484.919528050986	649.433444921421	1045.897048893818	762.880693959910	472.545898098659	998.356913551773	638.889559045539	391.000772014092	1090.124628524459	568.898204143256	464.010471775568	1095.084925248730	477.965169609117	452.547121320633	1022.869626931918	419.089228879869	435.744936208106	879.140484150049	390.415427545446	382.667294748870	858.416419696787	257.862070257528	426.189129989201	992.906422082656	396.842452893063	647.433369020197	908.747538146050	296.419127005115	698.656140647058	946.367860217674	202.482496414695	632.366682257247	801.659602448342	43.791277716100	586.069865751815	972.114310308399	97.659272230428	634.948454722646	879.987891683114	37.178777277763	666.004236074420	1088.567795534932	43.731996012356	669.851592542023	663.736028784526	195.213788917141	459.290409373369	720.311332742208	161.218388808915	372.745044386301	825.961631013763	164.626833990516	394.129430750975	902.083020971803	56.952204532238	348.684462451991	987.451526517823	1085.867522299824	298.685185514584	1196.250292242199	923.976067492837	302.969228236422	877.345816681964	1088.909919238997	888.717812300229	987.524078624479	861.300618917956	958.997245989816	
2	35.489214285714	741.490502595234	992.350250473240	580.779966998418	936.876753749504	1429.495512808457	423.089568714302	1019.195125450285	1359.040492876762	594.780670241269	913.268608172253	1429.382101063628	757.369674598980	902.395035041806	1488.302134170442	579.836524429056	965.827913542511	937.773953193405	715.023993311525	969.729133641621	957.960634659727	441.445115006415	1021.398168069149	738.877292117195	678.568418451320	942.252256779592	620.585742556583	723.334757342373	1028.697605135182	576.862407706350	647.113285185524	1033.158465625844	482.645288620018	648.959005340669	1045.787639323743	764.024502015099	474.032156669648	1001.392624094807	639.290068201745	392.442401943980	1094.519831749544	571.455235182141	465.515794040406	1101.832163994970	480.843503130761	453.922826352515	1031.356255163362	420.264496012795	436.837647680757	888.617432765697	387.651861360052	383.686612228127	871.799085129325	254.475134164303	426.848303065673	992.896337097216	394.565951499308	646.980628022922	907.406081779004	295.377636769927	698.405633861249	942.847405861740	201.150193866591	631.871923189623	795.745146865120	43.806890921298	585.917390706960	966.303176024732	97.570778985578	634.775211852638	874.079325829253	37.192116573266	665.994168555414	1082.659676813894	43.645679041084	669.912510704012	679.295389460819	186.171001161194	459.887842423331	736.685562608968	154.036460702281	373.198647672218	842.112637334469	160.473286953076	394.533776171144	921.220839293410	55.292039829719	348.751704002693	973.785879323756	1079.770472663801	302.086586621012	1161.902797992736	900.684997193316	305.404039954371	888.049801482167	1086.482677851323	890.340665032600	1010.266172467181	866.053186494774	959.841317693571	
3	35.508428571429	738.961325780822	989.217637059758	584.026167862730	932.880623085105	1425.767389596792	422.871305475674	1017.076835336298	1356.073990284360	593.974981896207	913.218268905506	1427.183925720063	757.573889764786	900.383257550376	1485.589284878808	579.762561984112	964.698084463086	935.570369544413	716.308371385620	966.271846395745	955.874104382327	442.433816679030	1021.257294116437	737.374835653041	678.873954871452	943.628642912675	618.291930157646	723.937260496987	1029.772008215233	575.300987247740	646.846936679394	1034.578082835672	480.342228162648	648.479493412433	1045.528420552629	765.070638899087	475.450732732065	1004.233505438932	639.638947713957	393.796973925730	1098.728518025831	573.972138915488	466.922958975883	1108.434302373327	483.745149970310	455.173836993085	1039.848054353904	421.435569698632	437.793644027413	898.227336561752	384.545493128072	384.661738253928	885.732765793827	250.768419026665	427.398480827889	992.752768043712	392.255559796661	646.518868453905	905.947171968622	294.299714174753	698.176874550685	939.183726132583	199.789658070731	631.369287663515	789.701079744161	43.824922264050	585.778839012960	960.330846904723	97.452887875638	634.568448414565	868.028340177979	37.203860137350	665.979970922913	1076.610982719167	43.536275192947	669.973684044257	695.753293332371	176.365333276688	460.506500288919	753.909953307782	146.250164868281	373.613078661229	859.053339009678	155.954917916777	394.817336245187	941.308262061743	53.522047403018	348.592419999057	959.641331095459	1073.695797862881	305.455867499920	1126.358773603089	877.870072913739	307.998571585725	899.077628664078	1084.117166253042	891.826059439065	1033.824553885916	871.462107756526	960.213895371691	
4	35.527642857143	736.494231741924	986.188130322241	587.208526058131	928.800332147207	1422.133617964216	422.556483791253	1014.938473149181	1353.206537581606	593.025868451376	913.190829855388	1425.050980214240	757.663072873654	898.361490277231	1482.959791773068	579.583642678106	963.633357310378	933.449292092267	717.478924668493	962.753237056767	953.757660691344	443.340428304879	1021.027310477492	735.870426504901	679.140785129681	944.788244430657	616.067577233648	724.518610603250	1030.586235777285	573.736518585362	646.584003267841	1035.661947737574	478.091903181066	647.998091832349	1045.042907204696	765.975582456999	476.717444776135	1006.673712078084	639.931139059329	394.977684041455	1102.497077959131	576.371692795672	468.121924466982	1114.576548881895	486.622219329970	456.194084171946	1048.051837690228	422.599764636309	438.520932842845	907.747001552367	381.058989226587	385.514227015790	900.051024366684	246.761943595758	427.772192529812	992.347873603791	389.997209053132	646.059540701902	904.303926008449	293.217939682224	697.986731997164	935.383344371034	198.446574096165	630.875433814794	783.632886090664	43.843271369017	585.665482673077	954.293145557723	97.302210215993	634.328691157210	861.940691478430	37.213687932040	665.964784192413	1070.526614622391	43.401327655993	670.032287235425	713.051137917869	165.809293910388	461.103967981821	771.904653017127	137.871108847424	373.949443633815	876.663238625803	151.100907229519	394.931376661918	962.207035966238	51.711321435755	348.178127298449	945.159318281687	1067.930590692100	308.663310375149	1090.174680776421	856.579996644163	310.743262985435	910.257654219532	1081.984647272266	893.049017108176	1057.831510594162	877.797853566554	959.830331394486	
5	35.546857142857	734.164039321891	983.412324354393	590.268843026068	924.661384716199	1418.749274206318	422.115982076374	1012.816049990633	1350.582055717185	591.883667749155	913.226078998032	1423.111680545540	757.585430912031	896.359750145311	1480.542268165339	579.264925043537	962.679180911350	931.518117752522	718.473605852126	959.223426317564	951.708331411321	444.119540470832	1020.645349712225	734.413189179222	679.341062614672	945.583449304740	614.008161389880	725.057904002270	1030.969731316273	572.216077165643	646.318656091390	1036.199273758456	475.976513496648	647.516034696749	1044.264548166899	766.736779570474	477.760273814680	1008.530236216547	640.188794931063	395.909690390357	1105.604805945272	578.612841435090	469.013023765765	1119.986469759044	489.462430965225	456.894320442984	1055.716479579745	423.783955119740	438.949813010089	917.008454825400	377.190712300062	386.169015997118	914.624554048106	242.519849217053	427.921939716337	991.527573072528	387.882147874484	645.615344827764	902.378096167310	292.172515135128	697.848871689231	931.421020266097	197.171747577787	630.408518365366	777.609558607759	43.859881721306	585.588508138146	948.254245274900	97.122079105837	634.064886199770	855.886073870660	37.221179560988	665.952879703603	1064.475124603995	43.242228198426	670.085839138407	731.158339858671	154.573278007243	461.634169847662	790.637061831633	128.960508899422	374.179643237265	894.862704049581	145.989077560085	394.853653978784	983.824901296515	49.973431332490	347.536038418004	930.394453017916	1062.765913381296	311.604958481271	1053.814835937547	837.707165773964	313.626779531661	921.469665807645	1080.275913475972	893.905484813913	1081.979570965428	885.367153759165	958.438814376800	
